<?xml version="1.0" ?><svg enable-background="new 0 0 32 32" version="1.1" viewBox="0 0 32 32" xml:space="preserve" xmlns="http://www.w3.org/2000/svg" xmlns:xlink="http://www.w3.org/1999/xlink"><g id="style_2"><g><g><g><polygon points="21.945,3.118 20.452,1.625 1.625,1.625 1.625,28.882 10.055,28.882 11.548,30.375 30.375,30.375 30.375,3.118           "/></g></g><g><polygon fill="#FF0000" points="1.625,4.777 8.492,4.777 9.617,3.652 16.529,3.652 18.047,5.17 23.497,5.17 23.497,4.92      18.151,4.92 16.632,3.402 1.625,3.402    "/></g><g><g><polygon fill="#FF0000" points="21.52,28.601 14.995,28.601 14.995,28.351 21.416,28.351 22.205,27.563 30.375,27.563       30.375,27.813 22.309,27.813     "/></g></g><g opacity="0.25"><rect fill="#FFFFFF" height="27.257" width="2.612" x="1.625" y="1.625"/></g><g opacity="0.25"><rect fill="#FFFFFF" height="1.375" width="2.612" x="1.625" y="3.402"/></g></g></g><g id="s2"><g><g><path d="M22.118,7.843H9.882c-1.152,0-2.039,0.888-2.039,2.039v12.235c0,1.151,0.888,2.039,2.039,2.039h12.235     c1.151,0,2.039-0.888,2.039-2.039V9.882C24.157,8.731,23.269,7.843,22.118,7.843z M16.012,12.795     c1.809,0,3.275,1.421,3.275,3.174c0,1.752-1.466,3.174-3.275,3.174c-1.808,0-3.274-1.422-3.274-3.174     C12.738,14.216,14.205,12.795,16.012,12.795z M22.118,21.608c0,0.357-0.153,0.51-0.51,0.51H10.392c-0.356,0-0.51-0.152-0.51-0.51     v-7.137l1.271,0.276c-0.136,0.444-0.211,0.913-0.211,1.399c0,2.711,2.271,4.911,5.069,4.911c2.8,0,5.069-2.2,5.069-4.911     c0-0.487-0.074-0.956-0.21-1.399l1.246-0.276V21.608z M22.118,12.431c0,0.282-0.228,0.51-0.51,0.51h-2.039     c-0.282,0-0.51-0.228-0.51-0.51v-2.039c0-0.282,0.228-0.51,0.51-0.51h2.039c0.282,0,0.51,0.228,0.51,0.51V12.431z" fill="#FFFFFF"/></g></g></g></svg>