<?xml version="1.0" ?><svg enable-background="new 0 0 32 32" version="1.1" viewBox="0 0 32 32" xml:space="preserve" xmlns="http://www.w3.org/2000/svg" xmlns:xlink="http://www.w3.org/1999/xlink"><g id="style_2"><g><g><g><polygon points="21.945,3.118 20.452,1.625 1.625,1.625 1.625,28.882 10.055,28.882 11.548,30.375 30.375,30.375 30.375,3.118           "/></g></g><g><polygon fill="#FF0000" points="1.625,4.777 8.492,4.777 9.617,3.652 16.529,3.652 18.047,5.17 23.497,5.17 23.497,4.92      18.151,4.92 16.632,3.402 1.625,3.402    "/></g><g><g><polygon fill="#FF0000" points="21.52,28.601 14.995,28.601 14.995,28.351 21.416,28.351 22.205,27.563 30.375,27.563       30.375,27.813 22.309,27.813     "/></g></g><g opacity="0.25"><rect fill="#FFFFFF" height="27.257" width="2.612" x="1.625" y="1.625"/></g><g opacity="0.25"><rect fill="#FFFFFF" height="1.375" width="2.612" x="1.625" y="3.402"/></g></g></g><g id="s2"><g><g><g><path d="M24.882,12.135c0,0-0.177-1.333-0.72-1.92c-0.69-0.769-1.462-0.774-1.816-0.818      C19.809,9.2,16.004,9.2,16.004,9.2h-0.009c0,0-3.805,0-6.341,0.197C9.3,9.441,8.528,9.445,7.838,10.215      c-0.543,0.587-0.72,1.92-0.72,1.92s-0.181,1.564-0.181,3.129v1.466c0,1.566,0.181,3.13,0.181,3.13s0.177,1.333,0.72,1.919      c0.69,0.769,1.595,0.746,1.999,0.827C11.287,22.754,16,22.8,16,22.8s3.809-0.007,6.346-0.201      c0.354-0.045,1.126-0.05,1.816-0.819c0.543-0.586,0.72-1.919,0.72-1.919s0.181-1.565,0.181-3.13v-1.466      C25.063,13.699,24.882,12.135,24.882,12.135z M13.736,19.4v-6.8l5.666,3.4L13.736,19.4z" fill="#FFFFFF"/></g></g></g></g></svg>