<?xml version="1.0" ?><svg enable-background="new 0 0 32 32" version="1.1" viewBox="0 0 32 32" xml:space="preserve" xmlns="http://www.w3.org/2000/svg" xmlns:xlink="http://www.w3.org/1999/xlink"><g id="style_2"><g><g><g><polygon points="21.945,3.118 20.452,1.625 1.625,1.625 1.625,28.882 10.055,28.882 11.548,30.375 30.375,30.375 30.375,3.118           "/></g></g><g><polygon fill="#FF0000" points="1.625,4.777 8.492,4.777 9.617,3.652 16.529,3.652 18.047,5.17 23.497,5.17 23.497,4.92      18.151,4.92 16.632,3.402 1.625,3.402    "/></g><g><g><polygon fill="#FF0000" points="21.52,28.601 14.995,28.601 14.995,28.351 21.416,28.351 22.205,27.563 30.375,27.563       30.375,27.813 22.309,27.813     "/></g></g><g opacity="0.25"><rect fill="#FFFFFF" height="27.257" width="2.612" x="1.625" y="1.625"/></g><g opacity="0.25"><rect fill="#FFFFFF" height="1.375" width="2.612" x="1.625" y="3.402"/></g></g></g><g id="s2"><g id="Cat_4_"><g><path d="M19.246,24.945h-2.383h-2.385c0,0,0.007-1.415,0-2.385c-3.264,0.703-4.175-1.789-4.175-1.789     c-0.596-1.193-1.193-1.789-1.193-1.789c-1.193-0.708,0-0.596,0-0.596c1.193,0,1.789,1.193,1.789,1.193     c1.047,1.777,2.909,1.491,3.578,1.193c0-0.596,0.261-1.498,0.596-1.789c-2.605-0.293-4.773-1.789-4.773-4.771     s0.599-3.578,1.195-4.175c-0.12-0.294-0.62-1.381,0.018-2.982c0,0,1.172,0,2.365,1.789c0.591-0.591,2.385-0.596,2.982-0.596     c0.595,0,2.39,0.005,2.981,0.596c1.193-1.789,2.368-1.789,2.368-1.789c0.638,1.601,0.139,2.688,0.018,2.982     c0.596,0.596,1.193,1.193,1.193,4.175s-2.165,4.477-4.771,4.771c0.336,0.291,0.596,1.317,0.596,1.789L19.246,24.945     L19.246,24.945z" fill="#FFFFFF"/></g></g></g></svg>