<?xml version="1.0" ?><svg enable-background="new 0 0 32 32" version="1.1" viewBox="0 0 32 32" xml:space="preserve" xmlns="http://www.w3.org/2000/svg" xmlns:xlink="http://www.w3.org/1999/xlink"><g id="style_2_copy"><g><g><g><polygon points="21.945,3.118 20.452,1.625 1.625,1.625 1.625,28.882 10.055,28.882 11.548,30.375 30.375,30.375 30.375,3.118           "/></g></g><g><polygon fill="#999999" points="1.625,4.777 8.492,4.777 9.617,3.652 16.529,3.652 18.047,5.17 23.497,5.17 23.497,4.92      18.151,4.92 16.632,3.402 1.625,3.402    "/></g><g><g><polygon fill="#999999" points="21.52,28.601 14.995,28.601 14.995,28.351 21.416,28.351 22.205,27.563 30.375,27.563       30.375,27.813 22.309,27.813     "/></g></g><g opacity="0.25"><rect fill="#FFFFFF" height="27.257" width="2.612" x="1.625" y="1.625"/></g><g opacity="0.25"><rect fill="#FFFFFF" height="1.375" width="2.612" x="1.625" y="3.402"/></g></g></g><g id="s2"><g><path d="M20.014,21.363l1.698-1.019v0.927l-5.725,3.613l-5.598-3.64v-0.872l1.675,0.992l0.186,0.11l0.172-0.131    l3.616-2.776l3.615,2.776l0.173,0.131L20.014,21.363z M16.05,10.555l5.506,3.163L16,17.399l-5.521-3.478L16.05,10.555z     M25.61,10.74l-5.672-3.625l-3.9,3.27l-3.812-3.27l-5.837,3.802l4.019,3.058l-4.019,3.058l3.999,2.369l1.838,1.088l3.812-2.925    l3.811,2.925l1.863-1.118l3.899-2.339l-3.722-3.191L25.61,10.74z" fill="#FFFFFF"/></g></g></svg>