<?xml version="1.0" ?><!DOCTYPE svg  PUBLIC '-//W3C//DTD SVG 1.1//EN'  'http://www.w3.org/Graphics/SVG/1.1/DTD/svg11.dtd'><svg height="8.26772in" style="shape-rendering:geometricPrecision; text-rendering:geometricPrecision; image-rendering:optimizeQuality; fill-rule:evenodd; clip-rule:evenodd" version="1.1" viewBox="0 0 826772 826772" width="8.26772in" xml:space="preserve" xmlns="http://www.w3.org/2000/svg" xmlns:xlink="http://www.w3.org/1999/xlink"><defs><style type="text/css">
   <![CDATA[
    .fil0 {fill:#DD4B39}
    .fil1 {fill:#2E373C;fill-rule:nonzero}
    .fil2 {fill:white;fill-rule:nonzero}
   ]]>
  </style></defs><g id="Layer_x0020_1"><polygon class="fil0" points="0,0 826772,0 826772,826772 0,826772 "/><g id="_2016460831040"><polygon class="fil1" points="135662,442837 299307,550064 413843,454151 248825,351890 "/><polygon class="fil1" points="299307,153752 135662,260926 248825,351890 413843,249650 "/><polygon class="fil1" points="528342,153752 413843,249650 578858,351890 692023,260926 "/><polygon class="fil1" points="528342,550064 692023,442837 578858,351890 413843,454151 "/><polygon class="fil1" points="578174,574358 578174,538196 529029,570426 414214,474773 299307,570426 250162,538196 250162,574358 414214,673020 "/></g><g id="_2016460831232"><polygon class="fil2" points="121093,442837 284738,550064 399274,454151 234256,351890 "/><polygon class="fil2" points="284738,153752 121093,260926 234256,351890 399274,249650 "/><polygon class="fil2" points="513773,153752 399274,249650 564289,351890 677454,260926 "/><polygon class="fil2" points="513773,550064 677454,442837 564289,351890 399274,454151 "/><polygon class="fil2" points="563605,574358 563605,538196 514460,570426 399645,474773 284738,570426 235593,538196 235593,574358 399645,673020 "/></g></g></svg>